<mxfile host="app.diagrams.net" modified="2024-02-19T23:28:29.009Z" agent="Mozilla/5.0 (X11; Linux x86_64) AppleWebKit/537.36 (KHTML, like Gecko) Chrome/121.0.0.0 Safari/537.36" etag="Muzj1sBT4bKhGWmYcD8p" version="23.0.2" type="device">
  <diagram name="Página-1" id="JF2h3BJK3NlYvGlngmE2">
    <mxGraphModel dx="1434" dy="711" grid="1" gridSize="10" guides="1" tooltips="1" connect="1" arrows="1" fold="1" page="1" pageScale="1" pageWidth="827" pageHeight="1169" math="0" shadow="0">
      <root>
        <mxCell id="0" />
        <mxCell id="1" parent="0" />
        <mxCell id="P4e2b2L5mNTn09-hxImW-1" value="User" style="shape=umlActor;verticalLabelPosition=bottom;verticalAlign=top;html=1;" vertex="1" parent="1">
          <mxGeometry x="90" y="216" width="30" height="60" as="geometry" />
        </mxCell>
        <mxCell id="P4e2b2L5mNTn09-hxImW-3" value="Calculator" style="shape=module;align=left;spacingLeft=20;align=center;verticalAlign=top;whiteSpace=wrap;html=1;fontStyle=1;fontSize=14;" vertex="1" parent="1">
          <mxGeometry x="255" y="340" width="130" height="50" as="geometry" />
        </mxCell>
        <mxCell id="P4e2b2L5mNTn09-hxImW-4" value="Controller" style="shape=module;align=left;spacingLeft=20;align=center;verticalAlign=top;whiteSpace=wrap;html=1;fontSize=14;fontStyle=1" vertex="1" parent="1">
          <mxGeometry x="240" y="220" width="100" height="50" as="geometry" />
        </mxCell>
        <mxCell id="P4e2b2L5mNTn09-hxImW-6" value="ExpressionParser" style="shape=module;align=left;spacingLeft=20;align=center;verticalAlign=top;whiteSpace=wrap;html=1;fontSize=14;fontStyle=1" vertex="1" parent="1">
          <mxGeometry x="460" y="340" width="170" height="50" as="geometry" />
        </mxCell>
        <mxCell id="P4e2b2L5mNTn09-hxImW-8" value="Expression" style="shape=module;align=left;spacingLeft=20;align=center;verticalAlign=top;whiteSpace=wrap;html=1;fontStyle=1;fontSize=14;" vertex="1" parent="1">
          <mxGeometry x="70" y="340" width="130" height="50" as="geometry" />
        </mxCell>
        <mxCell id="P4e2b2L5mNTn09-hxImW-10" value="«interface»&lt;br&gt;&lt;b&gt;Element&lt;/b&gt;" style="html=1;whiteSpace=wrap;" vertex="1" parent="1">
          <mxGeometry x="255" y="580" width="110" height="50" as="geometry" />
        </mxCell>
        <mxCell id="P4e2b2L5mNTn09-hxImW-13" value="ExpressionTree" style="swimlane;fontStyle=1;align=center;verticalAlign=top;childLayout=stackLayout;horizontal=1;startSize=26;horizontalStack=0;resizeParent=1;resizeParentMax=0;resizeLast=0;collapsible=1;marginBottom=0;whiteSpace=wrap;html=1;" vertex="1" parent="1">
          <mxGeometry x="230" y="440" width="160" height="86" as="geometry" />
        </mxCell>
        <mxCell id="P4e2b2L5mNTn09-hxImW-14" value="+ root: Element" style="text;strokeColor=none;fillColor=none;align=left;verticalAlign=top;spacingLeft=4;spacingRight=4;overflow=hidden;rotatable=0;points=[[0,0.5],[1,0.5]];portConstraint=eastwest;whiteSpace=wrap;html=1;" vertex="1" parent="P4e2b2L5mNTn09-hxImW-13">
          <mxGeometry y="26" width="160" height="26" as="geometry" />
        </mxCell>
        <mxCell id="P4e2b2L5mNTn09-hxImW-15" value="" style="line;strokeWidth=1;fillColor=none;align=left;verticalAlign=middle;spacingTop=-1;spacingLeft=3;spacingRight=3;rotatable=0;labelPosition=right;points=[];portConstraint=eastwest;strokeColor=inherit;" vertex="1" parent="P4e2b2L5mNTn09-hxImW-13">
          <mxGeometry y="52" width="160" height="8" as="geometry" />
        </mxCell>
        <mxCell id="P4e2b2L5mNTn09-hxImW-16" value="+ evaluate(): double" style="text;strokeColor=none;fillColor=none;align=left;verticalAlign=top;spacingLeft=4;spacingRight=4;overflow=hidden;rotatable=0;points=[[0,0.5],[1,0.5]];portConstraint=eastwest;whiteSpace=wrap;html=1;" vertex="1" parent="P4e2b2L5mNTn09-hxImW-13">
          <mxGeometry y="60" width="160" height="26" as="geometry" />
        </mxCell>
        <mxCell id="P4e2b2L5mNTn09-hxImW-17" value="OperatorElement" style="swimlane;fontStyle=1;align=center;verticalAlign=top;childLayout=stackLayout;horizontal=1;startSize=26;horizontalStack=0;resizeParent=1;resizeParentMax=0;resizeLast=0;collapsible=1;marginBottom=0;whiteSpace=wrap;html=1;" vertex="1" parent="1">
          <mxGeometry x="380" y="682" width="160" height="138" as="geometry" />
        </mxCell>
        <mxCell id="P4e2b2L5mNTn09-hxImW-18" value="+ left: Element&lt;br&gt;" style="text;strokeColor=none;fillColor=none;align=left;verticalAlign=top;spacingLeft=4;spacingRight=4;overflow=hidden;rotatable=0;points=[[0,0.5],[1,0.5]];portConstraint=eastwest;whiteSpace=wrap;html=1;" vertex="1" parent="P4e2b2L5mNTn09-hxImW-17">
          <mxGeometry y="26" width="160" height="26" as="geometry" />
        </mxCell>
        <mxCell id="P4e2b2L5mNTn09-hxImW-21" value="+ right: Element" style="text;strokeColor=none;fillColor=none;align=left;verticalAlign=top;spacingLeft=4;spacingRight=4;overflow=hidden;rotatable=0;points=[[0,0.5],[1,0.5]];portConstraint=eastwest;whiteSpace=wrap;html=1;" vertex="1" parent="P4e2b2L5mNTn09-hxImW-17">
          <mxGeometry y="52" width="160" height="26" as="geometry" />
        </mxCell>
        <mxCell id="P4e2b2L5mNTn09-hxImW-22" value="+ operator: Operator" style="text;strokeColor=none;fillColor=none;align=left;verticalAlign=top;spacingLeft=4;spacingRight=4;overflow=hidden;rotatable=0;points=[[0,0.5],[1,0.5]];portConstraint=eastwest;whiteSpace=wrap;html=1;" vertex="1" parent="P4e2b2L5mNTn09-hxImW-17">
          <mxGeometry y="78" width="160" height="26" as="geometry" />
        </mxCell>
        <mxCell id="P4e2b2L5mNTn09-hxImW-19" value="" style="line;strokeWidth=1;fillColor=none;align=left;verticalAlign=middle;spacingTop=-1;spacingLeft=3;spacingRight=3;rotatable=0;labelPosition=right;points=[];portConstraint=eastwest;strokeColor=inherit;" vertex="1" parent="P4e2b2L5mNTn09-hxImW-17">
          <mxGeometry y="104" width="160" height="8" as="geometry" />
        </mxCell>
        <mxCell id="P4e2b2L5mNTn09-hxImW-20" value="+ evaluate(): double" style="text;strokeColor=none;fillColor=none;align=left;verticalAlign=top;spacingLeft=4;spacingRight=4;overflow=hidden;rotatable=0;points=[[0,0.5],[1,0.5]];portConstraint=eastwest;whiteSpace=wrap;html=1;" vertex="1" parent="P4e2b2L5mNTn09-hxImW-17">
          <mxGeometry y="112" width="160" height="26" as="geometry" />
        </mxCell>
        <mxCell id="P4e2b2L5mNTn09-hxImW-23" value="NumberElement" style="swimlane;fontStyle=1;align=center;verticalAlign=top;childLayout=stackLayout;horizontal=1;startSize=26;horizontalStack=0;resizeParent=1;resizeParentMax=0;resizeLast=0;collapsible=1;marginBottom=0;whiteSpace=wrap;html=1;" vertex="1" parent="1">
          <mxGeometry x="90" y="682" width="160" height="86" as="geometry" />
        </mxCell>
        <mxCell id="P4e2b2L5mNTn09-hxImW-24" value="+ value: double" style="text;strokeColor=none;fillColor=none;align=left;verticalAlign=top;spacingLeft=4;spacingRight=4;overflow=hidden;rotatable=0;points=[[0,0.5],[1,0.5]];portConstraint=eastwest;whiteSpace=wrap;html=1;" vertex="1" parent="P4e2b2L5mNTn09-hxImW-23">
          <mxGeometry y="26" width="160" height="26" as="geometry" />
        </mxCell>
        <mxCell id="P4e2b2L5mNTn09-hxImW-25" value="" style="line;strokeWidth=1;fillColor=none;align=left;verticalAlign=middle;spacingTop=-1;spacingLeft=3;spacingRight=3;rotatable=0;labelPosition=right;points=[];portConstraint=eastwest;strokeColor=inherit;" vertex="1" parent="P4e2b2L5mNTn09-hxImW-23">
          <mxGeometry y="52" width="160" height="8" as="geometry" />
        </mxCell>
        <mxCell id="P4e2b2L5mNTn09-hxImW-26" value="+ evaluate(): double" style="text;strokeColor=none;fillColor=none;align=left;verticalAlign=top;spacingLeft=4;spacingRight=4;overflow=hidden;rotatable=0;points=[[0,0.5],[1,0.5]];portConstraint=eastwest;whiteSpace=wrap;html=1;" vertex="1" parent="P4e2b2L5mNTn09-hxImW-23">
          <mxGeometry y="60" width="160" height="26" as="geometry" />
        </mxCell>
        <mxCell id="P4e2b2L5mNTn09-hxImW-27" value="«interface»&lt;br&gt;&lt;b&gt;Operator&lt;/b&gt;" style="html=1;whiteSpace=wrap;" vertex="1" parent="1">
          <mxGeometry x="540" y="585" width="110" height="50" as="geometry" />
        </mxCell>
        <mxCell id="P4e2b2L5mNTn09-hxImW-28" value="Use" style="endArrow=open;endSize=12;dashed=1;html=1;rounded=0;entryX=0.5;entryY=1;entryDx=0;entryDy=0;" edge="1" parent="1" target="P4e2b2L5mNTn09-hxImW-27">
          <mxGeometry x="0.0073" width="160" relative="1" as="geometry">
            <mxPoint x="540" y="680" as="sourcePoint" />
            <mxPoint x="700" y="690" as="targetPoint" />
            <mxPoint as="offset" />
          </mxGeometry>
        </mxCell>
        <mxCell id="P4e2b2L5mNTn09-hxImW-29" value="Extends" style="endArrow=block;endSize=16;endFill=0;html=1;rounded=0;exitX=0.431;exitY=0.035;exitDx=0;exitDy=0;exitPerimeter=0;entryX=0.25;entryY=1;entryDx=0;entryDy=0;" edge="1" parent="1" source="P4e2b2L5mNTn09-hxImW-23" target="P4e2b2L5mNTn09-hxImW-10">
          <mxGeometry width="160" relative="1" as="geometry">
            <mxPoint x="180" y="710" as="sourcePoint" />
            <mxPoint x="340" y="710" as="targetPoint" />
          </mxGeometry>
        </mxCell>
        <mxCell id="P4e2b2L5mNTn09-hxImW-30" value="Extends" style="endArrow=block;endSize=16;endFill=0;html=1;rounded=0;exitX=0.5;exitY=0;exitDx=0;exitDy=0;entryX=0.75;entryY=1;entryDx=0;entryDy=0;" edge="1" parent="1" source="P4e2b2L5mNTn09-hxImW-17" target="P4e2b2L5mNTn09-hxImW-10">
          <mxGeometry width="160" relative="1" as="geometry">
            <mxPoint x="189" y="683" as="sourcePoint" />
            <mxPoint x="300" y="794" as="targetPoint" />
          </mxGeometry>
        </mxCell>
        <mxCell id="P4e2b2L5mNTn09-hxImW-31" value="Use" style="endArrow=open;endSize=12;dashed=1;html=1;rounded=0;exitX=0.519;exitY=1.077;exitDx=0;exitDy=0;entryX=0.5;entryY=0;entryDx=0;entryDy=0;exitPerimeter=0;" edge="1" parent="1" source="P4e2b2L5mNTn09-hxImW-16" target="P4e2b2L5mNTn09-hxImW-10">
          <mxGeometry width="160" relative="1" as="geometry">
            <mxPoint x="540" y="705" as="sourcePoint" />
            <mxPoint x="620" y="656" as="targetPoint" />
          </mxGeometry>
        </mxCell>
        <mxCell id="P4e2b2L5mNTn09-hxImW-32" value="Use" style="endArrow=open;endSize=12;dashed=1;html=1;rounded=0;entryX=0;entryY=0;entryDx=0;entryDy=15;exitX=1;exitY=0.3333333333333333;exitDx=0;exitDy=0;exitPerimeter=0;entryPerimeter=0;" edge="1" parent="1" source="P4e2b2L5mNTn09-hxImW-1" target="P4e2b2L5mNTn09-hxImW-4">
          <mxGeometry x="0.0073" width="160" relative="1" as="geometry">
            <mxPoint x="550" y="690" as="sourcePoint" />
            <mxPoint x="605" y="645" as="targetPoint" />
            <mxPoint as="offset" />
          </mxGeometry>
        </mxCell>
        <mxCell id="P4e2b2L5mNTn09-hxImW-34" value="Use" style="endArrow=open;endSize=12;dashed=1;html=1;rounded=0;entryX=0.5;entryY=0;entryDx=0;entryDy=0;exitX=0.5;exitY=1;exitDx=0;exitDy=0;" edge="1" parent="1" source="P4e2b2L5mNTn09-hxImW-4" target="P4e2b2L5mNTn09-hxImW-8">
          <mxGeometry x="0.0073" width="160" relative="1" as="geometry">
            <mxPoint x="130" y="246" as="sourcePoint" />
            <mxPoint x="250" y="245" as="targetPoint" />
            <mxPoint as="offset" />
          </mxGeometry>
        </mxCell>
        <mxCell id="P4e2b2L5mNTn09-hxImW-35" value="Use" style="endArrow=open;endSize=12;dashed=1;html=1;rounded=0;entryX=0.5;entryY=0;entryDx=0;entryDy=0;exitX=0.5;exitY=1;exitDx=0;exitDy=0;" edge="1" parent="1" source="P4e2b2L5mNTn09-hxImW-4" target="P4e2b2L5mNTn09-hxImW-3">
          <mxGeometry x="0.0073" width="160" relative="1" as="geometry">
            <mxPoint x="300" y="280" as="sourcePoint" />
            <mxPoint x="145" y="350" as="targetPoint" />
            <mxPoint as="offset" />
          </mxGeometry>
        </mxCell>
        <mxCell id="P4e2b2L5mNTn09-hxImW-36" value="Use" style="endArrow=open;endSize=12;dashed=1;html=1;rounded=0;entryX=0;entryY=0;entryDx=0;entryDy=35;exitX=1;exitY=0.5;exitDx=0;exitDy=0;entryPerimeter=0;" edge="1" parent="1" source="P4e2b2L5mNTn09-hxImW-3" target="P4e2b2L5mNTn09-hxImW-6">
          <mxGeometry x="0.0073" width="160" relative="1" as="geometry">
            <mxPoint x="300" y="280" as="sourcePoint" />
            <mxPoint x="330" y="350" as="targetPoint" />
            <mxPoint as="offset" />
          </mxGeometry>
        </mxCell>
        <mxCell id="P4e2b2L5mNTn09-hxImW-37" value="Use" style="endArrow=open;endSize=12;dashed=1;html=1;rounded=0;entryX=1;entryY=0.5;entryDx=0;entryDy=0;exitX=0.5;exitY=1;exitDx=0;exitDy=0;" edge="1" parent="1" source="P4e2b2L5mNTn09-hxImW-6" target="P4e2b2L5mNTn09-hxImW-14">
          <mxGeometry x="0.0073" width="160" relative="1" as="geometry">
            <mxPoint x="630" y="435" as="sourcePoint" />
            <mxPoint x="685" y="390" as="targetPoint" />
            <mxPoint as="offset" />
          </mxGeometry>
        </mxCell>
      </root>
    </mxGraphModel>
  </diagram>
</mxfile>
